<?xml version="1.0" standalone="no"?>
<!DOCTYPE svg PUBLIC "-//W3C//DTD SVG 20010904//EN"
 "http://www.w3.org/TR/2001/REC-SVG-20010904/DTD/svg10.dtd">
<svg version="1.0" xmlns="http://www.w3.org/2000/svg"
 width="452.000000pt" height="626.000000pt" viewBox="0 0 452.000000 626.000000"
 preserveAspectRatio="xMidYMid meet">

<g transform="translate(0.000000,626.000000) scale(0.100000,-0.100000)"
fill="#000000" stroke="none">
<path d="M1085 6245 c-218 -40 -442 -133 -642 -266 -261 -176 -407 -364 -438
-567 -4 -23 -2 -498 5 -1055 6 -557 15 -1338 19 -1737 l7 -725 28 -47 c15 -26
49 -67 76 -90 40 -36 2592 -1639 2745 -1725 90 -50 210 -35 281 35 64 65 59
-96 62 1887 2 1284 0 1815 -8 1851 -21 101 56 51 -1040 664 -184 103 -492 275
-685 383 -192 108 -498 279 -680 380 -181 102 -331 189 -333 195 -5 17 102
124 184 183 207 149 403 212 553 180 36 -8 287 -137 829 -427 427 -229 973
-522 1212 -650 661 -353 683 -366 697 -394 10 -20 13 -388 13 -1758 0 -1685 1
-1734 19 -1770 40 -78 122 -127 230 -138 116 -13 222 44 274 145 l27 55 0
1851 0 1851 -25 51 c-15 30 -41 61 -63 76 -20 14 -379 202 -797 417 -418 216
-827 427 -910 470 -82 43 -231 119 -330 170 -99 51 -234 121 -300 155 -473
246 -672 342 -736 353 -83 15 -184 14 -274 -3z"/>
</g>
</svg>
